<svg xmlns="http://www.w3.org/2000/svg" width="200" height="56" viewBox="0 0 200 56" role="img" aria-label="LinkedIn">
  <defs>
    <linearGradient id="g" x1="0" y1="0" x2="1" y2="1"><stop offset="0" stop-color="#ff9d6c"/><stop offset="1" stop-color="#ff9d6c"/></linearGradient>
    <linearGradient id="bg" x1="0" y1="0" x2="1" y2="0"><stop offset="0" stop-color="#141414"/><stop offset="1" stop-color="#141414"/></linearGradient>
    <linearGradient id="shine" x1="0" y1="0" x2="1" y2="0"><stop offset="0" stop-color="#fff" stop-opacity="0"/><stop offset=".5" stop-color="#fff" stop-opacity=".14"/><stop offset="1" stop-color="#fff" stop-opacity="0"/></linearGradient>
    <clipPath id="c"><rect x="1" y="1" width="198" height="54" rx="27"/></clipPath>
  </defs>
  <style>
    text { font-family: ui-monospace, SFMono-Regular, Menlo, Consolas, "Liberation Mono", monospace; }
    .edge { stroke-dasharray: 90 410; animation: run 4.5s linear infinite; }
    @keyframes run { to { stroke-dashoffset: -500 } }
    .shine { animation: sweep 5s ease-in-out infinite; }
    @keyframes sweep { 0% { transform: translateX(-80px) skewX(-20deg) } 45%,100% { transform: translateX(260px) skewX(-20deg) } }
    .arrow { animation: nudge 2.4s ease-in-out infinite; }
    @keyframes nudge { 50% { transform: translate(3px,-3px) } }
    .logo { animation: glow 3s ease-in-out infinite; transform-box: fill-box; transform-origin: center; }
    @keyframes glow { 50% { transform: scale(1.08) } }
    @media (prefers-reduced-motion: reduce) { * { animation: none !important; } }
  </style>
  <rect x="1" y="1" width="198" height="54" rx="27" fill="url(#bg)" stroke="#3b3b3b"/>
  <g clip-path="url(#c)"><rect class="shine" x="0" y="0" width="60" height="56" fill="url(#shine)"/></g>
  <rect class="edge" x="1" y="1" width="198" height="54" rx="27" fill="none" stroke="url(#g)" stroke-width="2" pathLength="500"/>
  <g class="logo"><g transform="translate(22 14) scale(1.17)"><path fill="#ff9d6c" d="M20.447 20.452h-3.554v-5.569c0-1.328-.027-3.037-1.852-3.037-1.853 0-2.136 1.445-2.136 2.939v5.667H9.351V9h3.414v1.561h.046c.477-.9 1.637-1.85 3.37-1.85 3.601 0 4.267 2.37 4.267 5.455v6.286zM5.337 7.433c-1.144 0-2.063-.926-2.063-2.065 0-1.138.92-2.063 2.063-2.063 1.14 0 2.064.925 2.064 2.063 0 1.139-.925 2.065-2.064 2.065zm1.782 13.019H3.555V9h3.564v11.452zM22.225 0H1.771C.792 0 0 .774 0 1.729v20.542C0 23.227.792 24 1.771 24h20.451C23.2 24 24 23.227 24 22.271V1.729C24 .774 23.2 0 22.222 0h.003z"/></g></g>
  <text x="62" y="34" font-size="15" font-weight="700" fill="#eeeeee">LinkedIn</text>
  <g class="arrow"><path d="M160 35 l10 -10 M162 25 h8 v8" fill="none" stroke="#ff9d6c" stroke-width="2" stroke-linecap="round" stroke-linejoin="round"/></g>
</svg>